<?xml version="1.0" encoding="UTF-8" standalone="no"?>
<svg id="svg6152" xmlns:rdf="http://www.w3.org/1999/02/22-rdf-syntax-ns#" xmlns="http://www.w3.org/2000/svg" height="127.26mm" width="162.16mm" version="1.1" xmlns:cc="http://creativecommons.org/ns#" xmlns:xlink="http://www.w3.org/1999/xlink" viewBox="0 0 574.58518 450.9334" xmlns:dc="http://purl.org/dc/elements/1.1/">
<defs id="defs6154">
<filter id="filter5282" style="color-interpolation-filters:sRGB" height="1.4" width="1.4" y="-.2" x="-.2">
<feGaussianBlur id="feGaussianBlur5284" stdDeviation="3.3999999999999999" result="result10"/>
<feBlend id="feBlend5286" result="fbSourceGraphic" mode="normal" in2="result10" in="result10"/>
<feGaussianBlur id="feGaussianBlur5288" stdDeviation="17.46205338809035" result="result8" in="fbSourceGraphic"/>
<feTurbulence id="feTurbulence5290" baseFrequency="0.63244353182751545" stdDeviation="17.5" seed="0" result="result7" numOctaves="1" type="fractalNoise"/>
<feComposite id="feComposite5292" baseFrequency="0.63200000000000001" in2="result8" result="result6" in="result8" operator="in"/>
<feDisplacementMap id="feDisplacementMap5294" scale="59.922929" yChannelSelector="G" in2="result6" result="result4" xChannelSelector="R" in="result7"/>
<feComposite id="feComposite5296" scale="59.899999999999999" k4="0" in2="result4" k3="1" k2="0" k1="1" result="result2" in="result8" operator="arithmetic"/>
<feComposite id="feComposite5298" operator="in" result="fbSourceGraphic" in2="result2" in="fbSourceGraphic"/>
<feDisplacementMap id="feDisplacementMap5300" scale="25.6" xChannelSelector="R" yChannelSelector="G" in2="result4"/>
</filter>
<linearGradient id="linearGradient6035" y2="-886.15" xlink:href="#linearGradient6029" gradientUnits="userSpaceOnUse" x2="1067" y1="-907.19" x1="1005.4"/>
<linearGradient id="linearGradient6029">
<stop id="stop6031" stop-color="#008000" offset="0"/>
<stop id="stop6033" stop-color="#008000" stop-opacity="0" offset="1"/>
</linearGradient>
<radialGradient id="radialGradient6027" xlink:href="#linearGradient6029" gradientUnits="userSpaceOnUse" cy="-579.07" cx="702.36" gradientTransform="matrix(3.7047 -3.6847 .63558 .63904 -1789.2 2308.4)" r="448.03"/>
</defs>
<g id="layer1" transform="translate(-101.28 -332.61)">
<g id="g6037" filter="url(#filter5282)" transform="matrix(.5 0 0 .5 113.19 1004.2)">
<path id="ellipse5312" style="color-rendering:auto;text-decoration-color:#000000;color:#000000;isolation:auto;mix-blend-mode:normal;shape-rendering:auto;solid-color:#000000;block-progression:tb;text-decoration-line:none;text-decoration-style:solid;image-rendering:auto;white-space:normal;text-indent:0;text-transform:none" d="m384.42-1248.9c-137.6 64.163-252.93 161.67-321.39 273.57-68.454 111.91-84.284 230.98-38.752 328.62 45.532 97.643 146.92 162.06 276.65 181.55 129.73 19.493 278.55-6.1857 416.15-70.348 137.6-64.163 252.93-161.67 321.39-273.57 68.454-111.9 84.283-230.98 38.751-328.62-45.532-97.643-146.92-162.06-276.65-181.55-129.73-19.492-278.55 6.1865-416.15 70.349zm21.131 45.315c129.64-60.452 269.93-83.898 387.59-66.218s201.67 73.692 238.76 153.23c37.091 79.542 26 179.9-36.089 281.4s-170.22 193.89-299.87 254.35c-129.64 60.452-269.93 83.9-387.59 66.22s-201.67-73.692-238.76-153.23c-37.091-79.543-26-179.9 36.089-281.4s170.22-193.9 299.86-254.35z" fill="url(#linearGradient6035)"/>
<path id="path5331" d="m914.67-1169.1c-10.059-0.1957-23.474 3.6157-40.244 11.436l-30.037 14.008 85.541 183.44 30.037-14.006c16.573-7.7279 28.086-15.491 34.539-23.287 6.4146-7.8777 10.366-17.947 11.853-30.209 1.3211-10.688 0.7179-22.024-1.8086-34.01-2.5647-12.067-7.0741-25.022-13.529-38.865-6.3788-13.68-13.347-25.339-20.904-34.978-7.5574-9.6396-15.854-17.39-24.891-23.248-10.3-6.7649-20.486-10.192-30.557-10.283zm-96.99 37.896-76.869 35.846 85.541 183.44 78.498-36.604-16.674-35.754-50.014 23.32-19.594-42.021 45.5-21.217-16.672-35.754-45.502 21.217-15.928-34.158 48.387-22.562-16.674-35.756zm97.09 1.5781c6.2942-0.088 12.407 1.738 18.34 5.4785 10.547 6.65 20.061 19.067 28.541 37.252 8.5178 18.266 11.929 33.629 10.232 46.088-1.6471 12.436-8.2914 21.367-19.932 26.795l-10.209 4.7617-52.197-111.93 10.211-4.7617c5.1142-2.3847 10.118-3.6111 15.014-3.6797zm-188.61 41.1-101.8 47.471 16.672 35.754 36.697-17.111 68.867 147.69 28.484-13.283-68.867-147.69 36.621-17.078-16.672-35.754zm-131.89 66.25c-6.6013-0.088-13.415 1.5058-20.443 4.7832l-47.277 22.045 85.541 183.45 28.484-13.283-29.678-63.646 18.791-8.7617c14.057-6.5549 22.429-16.742 25.113-30.559 2.6955-13.922-0.44567-30.508-9.4219-49.758-8.938-19.168-19.586-32.151-31.945-38.953-6.174-3.4535-12.563-5.2244-19.164-5.3125zm-0.3711 38.705c2.9959-0.0718 5.9189 0.74052 8.7715 2.4394 5.0713 3.0203 9.5182 8.6271 13.338 16.818 3.8197 8.1913 5.2751 15.24 4.3672 21.148-0.94608 5.8263-4.1809 10.028-9.7051 12.604l-15.76 7.3496-23.891-51.238 15.758-7.3477c2.4168-1.127 4.791-1.7176 7.1211-1.7734zm-94.057 0.57812-76.871 35.846 85.541 183.44 78.498-36.604-16.672-35.756-50.014 23.322-19.596-42.021 45.5-21.217-16.672-35.756-45.5 21.217-15.93-34.156 48.387-22.562-16.672-35.756zm-114.3 54.557c-0.85189 0.006-1.7003 0.0322-2.543 0.0762-6.7416 0.35141-13.194 1.9629-19.359 4.8379-18.397 8.5789-28.981 23.937-31.75 46.07-2.8075 22.052 2.6244 47.74 16.299 77.064 13.636 29.243 29.823 49.918 48.559 62.023 18.697 12.024 37.245 13.747 55.643 5.168 6.1654-2.875 11.55-6.7822 16.152-11.721 4.6026-4.9385 8.4663-10.879 11.594-17.822l-17.703-37.967c-2.4892 8.4406-5.6496 15.249-9.4805 20.426s-8.5837 9.0875-14.256 11.732c-10.161 4.7379-20.671 3.0595-31.533-5.0391-10.862-8.0985-20.704-21.609-29.527-40.531-8.8616-19.004-12.903-35.268-12.125-48.795 0.77816-13.526 6.2477-22.659 16.408-27.396 5.6722-2.645 11.722-3.772 18.15-3.3789 6.4283 0.39307 13.674 2.3485 21.74 5.8672l-17.703-37.967c-6.4129-1.8088-12.601-2.6914-18.564-2.6484zm-111.26 51.86c-0.85188 0.006-1.6983 0.0322-2.541 0.0762-6.7416 0.35141-13.196 1.9649-19.361 4.8398-18.397 8.5789-28.981 23.935-31.75 46.068-2.8075 22.052 2.6264 47.74 16.301 77.064 13.636 29.243 29.821 49.918 48.557 62.023 18.697 12.024 37.245 13.747 55.643 5.168 6.1654-2.875 11.55-6.7822 16.152-11.721 4.6026-4.9385 8.4683-10.879 11.596-17.822l-17.705-37.967c-2.4892 8.4406-5.6496 15.251-9.4805 20.428s-8.5818 9.0875-14.254 11.732c-10.161 4.7379-20.671 3.0575-31.533-5.041s-20.706-21.609-29.529-40.531c-8.8616-19.004-12.903-35.268-12.125-48.795 0.77817-13.526 6.2477-22.659 16.408-27.396 5.6722-2.645 11.722-3.772 18.15-3.3789 6.4283 0.39307 13.676 2.3505 21.742 5.8691l-17.705-37.967c-6.4129-1.8088-12.601-2.6933-18.564-2.6504zm-129.33 59.051-33.959 15.836 44.627 202.52 28.633-13.352-8.5566-36.697 44.539-20.77 22.539 30.178 28.633-13.352-126.46-164.37zm3.1113 50.904 49.125 65.947-30.26 14.109-18.865-80.057z" fill="url(#radialGradient6027)"/>
</g>
</g>
</svg>
