<?xml version="1.0" encoding="UTF-8" standalone="no"?>
<svg id="svg5393" xmlns:rdf="http://www.w3.org/1999/02/22-rdf-syntax-ns#" xmlns="http://www.w3.org/2000/svg" height="76.358mm" width="97.296mm" version="1.1" xmlns:cc="http://creativecommons.org/ns#" xmlns:xlink="http://www.w3.org/1999/xlink" viewBox="0 0 344.75103 270.55957" xmlns:dc="http://purl.org/dc/elements/1.1/">
<defs id="defs5395">
<filter id="filter5282" style="color-interpolation-filters:sRGB" height="1.4" width="1.4" y="-.2" x="-.2">
<feGaussianBlur id="feGaussianBlur5284" stdDeviation="3.3999999999999999" result="result10"/>
<feBlend id="feBlend5286" result="fbSourceGraphic" mode="normal" in2="result10" in="result10"/>
<feGaussianBlur id="feGaussianBlur5288" stdDeviation="17.46205338809035" result="result8" in="fbSourceGraphic"/>
<feTurbulence id="feTurbulence5290" baseFrequency="0.63244353182751545" stdDeviation="17.5" seed="0" result="result7" numOctaves="1" type="fractalNoise"/>
<feComposite id="feComposite5292" baseFrequency="0.63200000000000001" in2="result8" result="result6" in="result8" operator="in"/>
<feDisplacementMap id="feDisplacementMap5294" scale="59.922929" yChannelSelector="G" in2="result6" result="result4" xChannelSelector="R" in="result7"/>
<feComposite id="feComposite5296" scale="59.899999999999999" k4="0" in2="result4" k3="1" k2="0" k1="1" result="result2" in="result8" operator="arithmetic"/>
<feComposite id="feComposite5298" operator="in" result="fbSourceGraphic" in2="result2" in="fbSourceGraphic"/>
<feDisplacementMap id="feDisplacementMap5300" scale="25.6" xChannelSelector="R" yChannelSelector="G" in2="result4"/>
</filter>
<linearGradient id="linearGradient5983" y2="391.23" xlink:href="#linearGradient5977" gradientUnits="userSpaceOnUse" x2="709.43" y1="646.73" x1="-491.3"/>
<linearGradient id="linearGradient5977">
<stop id="stop5979" stop-color="#d40000" offset="0"/>
<stop id="stop5981" stop-color="#d40000" stop-opacity="0" offset="1"/>
</linearGradient>
<linearGradient id="linearGradient5992" y2="464.51" xlink:href="#linearGradient5977" gradientUnits="userSpaceOnUse" x2="494.47" y1="464.51" x1="276.05"/>
</defs>
<g id="layer1" transform="translate(272.38 -585.65)">
<g id="g5994" filter="url(#filter5282)" transform="matrix(0.3 0 0 0.3 -116.49 569.3)">
<path id="path5310" style="color-rendering:auto;text-decoration-color:#000000;color:#000000;isolation:auto;mix-blend-mode:normal;shape-rendering:auto;solid-color:#000000;block-progression:tb;text-decoration-line:none;text-decoration-style:solid;image-rendering:auto;white-space:normal;text-indent:0;text-transform:none" d="m-111.37 148.76c-137.6 64.163-252.93 161.67-321.39 273.57-68.454 111.91-84.285 230.98-38.753 328.62 45.532 97.643 146.92 162.06 276.65 181.55 129.73 19.493 278.55-6.1857 416.15-70.348 137.6-64.16 252.93-161.66 321.39-273.57 68.45-111.9 84.28-230.98 38.75-328.62s-146.92-162.05-276.65-181.55c-129.72-19.489-278.55 6.188-416.15 70.35zm21.131 45.315c129.64-60.46 269.93-83.9 387.59-66.22s201.67 73.692 238.76 153.23c37.091 79.543 26 179.9-36.089 281.4s-170.22 193.89-299.87 254.35c-129.64 60.452-269.93 83.9-387.59 66.22s-201.67-73.692-238.76-153.23c-37.091-79.542-26-179.9 36.089-281.4s170.22-193.9 299.86-254.35z" fill="url(#linearGradient5983)"/>
<path id="path5348" d="m416.97 241.58c-0.66349-0.002-1.3265 0.01-1.9902 0.0332-10.604 0.27564-24.933 4.6236-42.988 13.043l-32.34 15.08 81.73 175.27 32.342-15.08c17.843-8.3203 30.348-16.439 37.518-24.355 7.1332-7.9951 11.769-18.018 13.908-30.068 1.8899-10.505 1.781-21.555-0.32812-33.148-2.1456-11.672-6.303-24.121-12.471-37.348-6.0947-13.07-12.904-24.139-20.43-33.207-7.5257-9.0681-15.92-16.256-25.182-21.561-9.8933-5.7487-19.817-8.6356-29.77-8.6621zm-1.5137 38.543c5.851 0.0348 11.481 1.5545 16.891 4.5586 10.818 6.0082 20.279 17.699 28.381 35.074 8.1385 17.453 11.024 32.306 8.6562 44.559-2.3149 12.228-9.739 21.263-22.271 27.107l-10.992 5.125-49.871-106.95 10.992-5.125c6.2928-2.9344 12.364-4.3844 18.215-4.3496zm-104.56 3.0215-82.764 38.594 81.732 175.27 84.516-39.41-15.932-34.162-53.848 25.109-18.721-40.15 48.988-22.844-15.932-34.162-48.988 22.844-15.219-32.637 52.096-24.291-15.93-34.164zm-98.535 45.947-109.61 51.111 15.93 34.162 39.51-18.424 65.801 141.11 30.668-14.299-65.803-141.11 39.43-18.385-15.93-34.164zm-133.07 64.438c-1.8139 0.0181-3.6123 0.10936-5.3945 0.27344-7.1288 0.6563-14.012 2.5336-20.65 5.6289-19.808 9.2365-31.686 24.733-35.635 46.488-3.9856 21.677 0.55374 46.524 13.619 74.543 13.029 27.941 29.145 47.391 48.35 58.35 19.168 10.881 38.655 11.703 58.463 2.4668 6.638-3.0954 12.501-7.162 17.586-12.201 5.0851-5.0391 9.4388-11.024 13.061-17.953l-16.92-36.28c-3.0179 8.363-6.6692 15.162-10.951 20.398-4.282 5.2363-9.4751 9.2792-15.582 12.127-10.939 5.1011-21.951 3.9461-33.035-3.4629-11.083-7.41-20.84-20.16-29.27-38.23-8.467-18.16-11.977-33.87-10.528-47.12 1.4489-13.253 7.6426-22.43 18.582-27.531 6.107-2.8477 12.543-4.2283 19.307-4.1426 6.7637 0.0857 14.318 1.6609 22.664 4.7246l-16.917-36.28c-5.7272-1.2598-11.312-1.8628-16.754-1.8086zm-110.92 49.33l-82.762 38.592 81.73 175.28 84.516-39.41-15.93-34.162-53.848 25.109-18.723-40.15 48.988-22.844-15.93-34.162-48.988 22.844-15.219-32.637 52.094-24.293-15.928-34.17zm-112.95 52.67-30.668 14.301 73.793 158.25c4.7444 10.174 6.6929 18.651 5.8457 25.43-0.79414 6.7543-4.3775 11.618-10.75 14.59l-4.7793 2.2285 15.932 34.162 6.2129-2.8965c16.303-7.6022 25.945-18.673 28.928-33.213 3.0354-14.565-0.53845-32.766-10.721-54.602l-73.793-158.25zm-59.42 27.71l-82.762 38.594 81.73 175.27 84.516-39.41-15.93-34.162-53.848 25.109-18.723-40.148 48.988-22.844-15.93-34.164-48.988 22.844-15.219-32.637 52.094-24.291-15.93-34.16zm-134.89 68.428c-7.9249 0.0107-16.783 2.2996-26.574 6.8652l-46.838 21.84 81.732 175.27 30.668-14.299-30.932-66.33 8.6836-4.0488c4.9918-2.3277 9.7232-2.58 14.193-0.75781 4.5232 1.7974 10.289 6.3971 17.297 13.801l34.807 36.795 32.658-15.23-39.857-42.012c-8.1066-8.5114-14.984-14.454-20.629-17.824-5.6282-3.4737-10.867-4.9362-15.719-4.3887 6.0047-7.0878 9.1576-15.229 9.4609-24.422 0.35641-9.2181-2.1651-19.618-7.5664-31.201-7.81-16.749-17.186-27.288-28.127-31.619-4.0831-1.6334-8.5029-2.4478-13.258-2.4414zm-4.7012 38.529c2.3046-0.0429 4.4136 0.40831 6.3242 1.3516 4.4203 2.1312 8.4903 7.1888 12.213 15.172 3.759 8.0613 5.0531 14.509 3.8808 19.344-1.1191 4.8096-4.8908 8.7107-11.316 11.707l-12.904 6.0176-20.967-44.963 12.904-6.0176c3.6144-1.6854 6.9021-2.5561 9.8652-2.6113z" fill="url(#linearGradient5992)"/>
</g>
</g>
</svg>
